<mxfile host="app.diagrams.net" modified="2024-02-18T16:15:01.290Z" agent="Mozilla/5.0 (Windows NT 10.0; Win64; x64) AppleWebKit/537.36 (KHTML, like Gecko) Chrome/121.0.0.0 Safari/537.36 Edg/121.0.0.0" etag="uvulV_0GYpwBmncNhZCM" version="23.1.5" type="github">
  <diagram name="Page-1" id="ajDpJvllg83Ok4pXp2j0">
    <mxGraphModel dx="1002" dy="577" grid="1" gridSize="10" guides="1" tooltips="1" connect="1" arrows="1" fold="1" page="1" pageScale="1" pageWidth="827" pageHeight="1169" math="0" shadow="0">
      <root>
        <mxCell id="0" />
        <mxCell id="1" parent="0" />
        <mxCell id="F7RkPhCMpiBUuudMdPFo-1" value="Actor" style="shape=umlActor;verticalLabelPosition=top;verticalAlign=bottom;html=1;labelBackgroundColor=none;fillColor=#dae8fc;strokeColor=#6c8ebf;rounded=0;fontFamily=Helvetica;fontSize=15;labelPosition=center;align=center;fontStyle=1;fontColor=#191919;direction=east;" vertex="1" parent="1">
          <mxGeometry x="70" y="150" width="30" height="60" as="geometry" />
        </mxCell>
        <mxCell id="F7RkPhCMpiBUuudMdPFo-2" value="Actor" style="shape=umlActor;verticalLabelPosition=bottom;verticalAlign=top;html=1;labelBackgroundColor=none;fillColor=#dae8fc;strokeColor=#6c8ebf;rounded=0;" vertex="1" parent="1">
          <mxGeometry x="70" y="350" width="30" height="60" as="geometry" />
        </mxCell>
        <mxCell id="F7RkPhCMpiBUuudMdPFo-14" value="&lt;h2 style=&quot;text-align: justify; line-height: 120%;&quot;&gt;&lt;span style=&quot;background-color: initial;&quot;&gt;DriveShare Diagram Use Case&lt;/span&gt;&lt;/h2&gt;&lt;div style=&quot;text-align: justify; line-height: 120%;&quot;&gt;&lt;br&gt;&lt;/div&gt;" style="text;html=1;align=center;verticalAlign=middle;resizable=0;points=[];autosize=1;strokeColor=none;fillColor=none;fontColor=#1A1A1A;" vertex="1" parent="1">
          <mxGeometry x="20" width="280" height="80" as="geometry" />
        </mxCell>
        <mxCell id="F7RkPhCMpiBUuudMdPFo-15" value="&lt;span style=&quot;border-bottom: 1px dotted&quot;&gt;Attribute&lt;/span&gt;" style="ellipse;whiteSpace=wrap;html=1;align=center;strokeColor=#D0CEE2;fontColor=#1A1A1A;fillColor=#5D7F99;" vertex="1" parent="1">
          <mxGeometry x="280" y="70" width="100" height="50" as="geometry" />
        </mxCell>
        <mxCell id="F7RkPhCMpiBUuudMdPFo-16" value="&lt;span style=&quot;border-bottom: 1px dotted&quot;&gt;Attribute&lt;/span&gt;" style="ellipse;whiteSpace=wrap;html=1;align=center;strokeColor=#D0CEE2;fontColor=#1A1A1A;fillColor=#5D7F99;" vertex="1" parent="1">
          <mxGeometry x="280" y="140" width="100" height="50" as="geometry" />
        </mxCell>
        <mxCell id="F7RkPhCMpiBUuudMdPFo-17" value="&lt;span style=&quot;border-bottom: 1px dotted&quot;&gt;Attribute&lt;/span&gt;" style="ellipse;whiteSpace=wrap;html=1;align=center;strokeColor=#D0CEE2;fontColor=#1A1A1A;fillColor=#5D7F99;" vertex="1" parent="1">
          <mxGeometry x="280" y="210" width="100" height="50" as="geometry" />
        </mxCell>
        <mxCell id="F7RkPhCMpiBUuudMdPFo-18" value="&lt;span style=&quot;border-bottom: 1px dotted&quot;&gt;Attribute&lt;/span&gt;" style="ellipse;whiteSpace=wrap;html=1;align=center;strokeColor=#D0CEE2;fontColor=#1A1A1A;fillColor=#5D7F99;" vertex="1" parent="1">
          <mxGeometry x="280" y="280" width="100" height="50" as="geometry" />
        </mxCell>
        <mxCell id="F7RkPhCMpiBUuudMdPFo-19" value="" style="endArrow=none;html=1;rounded=0;strokeColor=#736CA8;fontColor=#1A1A1A;entryX=0.036;entryY=0.656;entryDx=0;entryDy=0;entryPerimeter=0;" edge="1" parent="1" target="F7RkPhCMpiBUuudMdPFo-15">
          <mxGeometry width="50" height="50" relative="1" as="geometry">
            <mxPoint x="110" y="180" as="sourcePoint" />
            <mxPoint x="270" y="110" as="targetPoint" />
          </mxGeometry>
        </mxCell>
        <mxCell id="F7RkPhCMpiBUuudMdPFo-20" value="" style="endArrow=none;html=1;rounded=0;strokeColor=#736CA8;fontColor=#1A1A1A;entryX=0;entryY=0.5;entryDx=0;entryDy=0;" edge="1" parent="1" target="F7RkPhCMpiBUuudMdPFo-16">
          <mxGeometry width="50" height="50" relative="1" as="geometry">
            <mxPoint x="110" y="180" as="sourcePoint" />
            <mxPoint x="284" y="120" as="targetPoint" />
          </mxGeometry>
        </mxCell>
        <mxCell id="F7RkPhCMpiBUuudMdPFo-21" value="" style="endArrow=none;html=1;rounded=0;strokeColor=#736CA8;fontColor=#1A1A1A;entryX=-0.004;entryY=0.368;entryDx=0;entryDy=0;entryPerimeter=0;" edge="1" parent="1" target="F7RkPhCMpiBUuudMdPFo-17">
          <mxGeometry width="50" height="50" relative="1" as="geometry">
            <mxPoint x="110" y="180" as="sourcePoint" />
            <mxPoint x="280" y="190" as="targetPoint" />
          </mxGeometry>
        </mxCell>
      </root>
    </mxGraphModel>
  </diagram>
</mxfile>
